<mxfile host="app.diagrams.net" modified="2022-10-18T03:31:13.655Z" agent="5.0 (Windows)" etag="3tfuiWWlQrno4J1XNkzq" version="20.4.0" type="github">
  <diagram id="C5RBs43oDa-KdzZeNtuy" name="Page-1">
    <mxGraphModel dx="1422" dy="780" grid="1" gridSize="10" guides="1" tooltips="1" connect="1" arrows="1" fold="1" page="1" pageScale="1" pageWidth="827" pageHeight="1169" math="0" shadow="0">
      <root>
        <mxCell id="WIyWlLk6GJQsqaUBKTNV-0" />
        <mxCell id="WIyWlLk6GJQsqaUBKTNV-1" parent="WIyWlLk6GJQsqaUBKTNV-0" />
        <mxCell id="RgUNQmBHwqO6JFGZNGBy-1" value="" style="edgeStyle=orthogonalEdgeStyle;rounded=0;orthogonalLoop=1;jettySize=auto;html=1;" edge="1" parent="WIyWlLk6GJQsqaUBKTNV-1" source="WIyWlLk6GJQsqaUBKTNV-3" target="RgUNQmBHwqO6JFGZNGBy-0">
          <mxGeometry relative="1" as="geometry" />
        </mxCell>
        <mxCell id="WIyWlLk6GJQsqaUBKTNV-3" value="开始" style="rounded=1;whiteSpace=wrap;html=1;fontSize=12;glass=0;strokeWidth=1;shadow=0;" parent="WIyWlLk6GJQsqaUBKTNV-1" vertex="1">
          <mxGeometry x="40" y="74" width="90" height="40" as="geometry" />
        </mxCell>
        <mxCell id="RgUNQmBHwqO6JFGZNGBy-3" value="" style="edgeStyle=orthogonalEdgeStyle;rounded=0;orthogonalLoop=1;jettySize=auto;html=1;" edge="1" parent="WIyWlLk6GJQsqaUBKTNV-1" source="RgUNQmBHwqO6JFGZNGBy-0" target="RgUNQmBHwqO6JFGZNGBy-2">
          <mxGeometry relative="1" as="geometry" />
        </mxCell>
        <mxCell id="RgUNQmBHwqO6JFGZNGBy-0" value="查询specAppl记录" style="whiteSpace=wrap;html=1;rounded=1;glass=0;strokeWidth=1;shadow=0;" vertex="1" parent="WIyWlLk6GJQsqaUBKTNV-1">
          <mxGeometry x="180" y="73.5" width="120" height="42.5" as="geometry" />
        </mxCell>
        <mxCell id="RgUNQmBHwqO6JFGZNGBy-5" style="edgeStyle=orthogonalEdgeStyle;rounded=0;orthogonalLoop=1;jettySize=auto;html=1;exitX=1;exitY=0.5;exitDx=0;exitDy=0;entryX=0;entryY=0.5;entryDx=0;entryDy=0;" edge="1" parent="WIyWlLk6GJQsqaUBKTNV-1" source="RgUNQmBHwqO6JFGZNGBy-2" target="RgUNQmBHwqO6JFGZNGBy-4">
          <mxGeometry relative="1" as="geometry" />
        </mxCell>
        <mxCell id="RgUNQmBHwqO6JFGZNGBy-2" value="过滤没有被删除的dbitem" style="whiteSpace=wrap;html=1;rounded=1;glass=0;strokeWidth=1;shadow=0;" vertex="1" parent="WIyWlLk6GJQsqaUBKTNV-1">
          <mxGeometry x="350" y="74" width="120" height="40" as="geometry" />
        </mxCell>
        <mxCell id="RgUNQmBHwqO6JFGZNGBy-8" style="edgeStyle=orthogonalEdgeStyle;rounded=0;orthogonalLoop=1;jettySize=auto;html=1;exitX=1;exitY=0.5;exitDx=0;exitDy=0;entryX=0;entryY=0.5;entryDx=0;entryDy=0;" edge="1" parent="WIyWlLk6GJQsqaUBKTNV-1" source="RgUNQmBHwqO6JFGZNGBy-4" target="RgUNQmBHwqO6JFGZNGBy-7">
          <mxGeometry relative="1" as="geometry" />
        </mxCell>
        <mxCell id="RgUNQmBHwqO6JFGZNGBy-4" value="解析excel 文件成dtoItems对象集合" style="rounded=1;whiteSpace=wrap;html=1;fontSize=12;glass=0;strokeWidth=1;shadow=0;" vertex="1" parent="WIyWlLk6GJQsqaUBKTNV-1">
          <mxGeometry x="510" y="74.75" width="120" height="40" as="geometry" />
        </mxCell>
        <mxCell id="RgUNQmBHwqO6JFGZNGBy-9" style="edgeStyle=orthogonalEdgeStyle;rounded=0;orthogonalLoop=1;jettySize=auto;html=1;exitX=0.5;exitY=0;exitDx=0;exitDy=0;entryX=0.5;entryY=0;entryDx=0;entryDy=0;" edge="1" parent="WIyWlLk6GJQsqaUBKTNV-1" source="RgUNQmBHwqO6JFGZNGBy-7" target="WIyWlLk6GJQsqaUBKTNV-3">
          <mxGeometry relative="1" as="geometry" />
        </mxCell>
        <mxCell id="RgUNQmBHwqO6JFGZNGBy-10" value="no" style="edgeLabel;html=1;align=center;verticalAlign=middle;resizable=0;points=[];" vertex="1" connectable="0" parent="RgUNQmBHwqO6JFGZNGBy-9">
          <mxGeometry x="-0.8323" y="-2" relative="1" as="geometry">
            <mxPoint as="offset" />
          </mxGeometry>
        </mxCell>
        <mxCell id="RgUNQmBHwqO6JFGZNGBy-12" value="" style="edgeStyle=orthogonalEdgeStyle;rounded=0;orthogonalLoop=1;jettySize=auto;html=1;" edge="1" parent="WIyWlLk6GJQsqaUBKTNV-1" source="RgUNQmBHwqO6JFGZNGBy-7" target="RgUNQmBHwqO6JFGZNGBy-11">
          <mxGeometry relative="1" as="geometry" />
        </mxCell>
        <mxCell id="RgUNQmBHwqO6JFGZNGBy-21" value="yes" style="edgeLabel;html=1;align=center;verticalAlign=middle;resizable=0;points=[];" vertex="1" connectable="0" parent="RgUNQmBHwqO6JFGZNGBy-12">
          <mxGeometry x="-0.6797" y="-1" relative="1" as="geometry">
            <mxPoint as="offset" />
          </mxGeometry>
        </mxCell>
        <mxCell id="RgUNQmBHwqO6JFGZNGBy-7" value="&lt;div&gt;dbItem和&lt;/div&gt;&lt;div&gt;dtoItem数量是否一样&lt;br&gt;&lt;/div&gt;" style="rhombus;whiteSpace=wrap;html=1;" vertex="1" parent="WIyWlLk6GJQsqaUBKTNV-1">
          <mxGeometry x="680" y="54" width="85" height="80" as="geometry" />
        </mxCell>
        <mxCell id="RgUNQmBHwqO6JFGZNGBy-16" style="edgeStyle=orthogonalEdgeStyle;rounded=0;orthogonalLoop=1;jettySize=auto;html=1;exitX=0;exitY=0.5;exitDx=0;exitDy=0;entryX=1;entryY=0.5;entryDx=0;entryDy=0;" edge="1" parent="WIyWlLk6GJQsqaUBKTNV-1" source="RgUNQmBHwqO6JFGZNGBy-11" target="RgUNQmBHwqO6JFGZNGBy-15">
          <mxGeometry relative="1" as="geometry" />
        </mxCell>
        <mxCell id="RgUNQmBHwqO6JFGZNGBy-11" value="遍历dbItem集合" style="rounded=1;whiteSpace=wrap;html=1;" vertex="1" parent="WIyWlLk6GJQsqaUBKTNV-1">
          <mxGeometry x="662.5" y="170" width="120" height="60" as="geometry" />
        </mxCell>
        <mxCell id="RgUNQmBHwqO6JFGZNGBy-18" value="" style="edgeStyle=orthogonalEdgeStyle;rounded=0;orthogonalLoop=1;jettySize=auto;html=1;" edge="1" parent="WIyWlLk6GJQsqaUBKTNV-1" source="RgUNQmBHwqO6JFGZNGBy-15" target="RgUNQmBHwqO6JFGZNGBy-17">
          <mxGeometry relative="1" as="geometry" />
        </mxCell>
        <mxCell id="RgUNQmBHwqO6JFGZNGBy-19" value="yse" style="edgeLabel;html=1;align=center;verticalAlign=middle;resizable=0;points=[];" vertex="1" connectable="0" parent="RgUNQmBHwqO6JFGZNGBy-18">
          <mxGeometry x="-0.6972" y="1" relative="1" as="geometry">
            <mxPoint x="-6" y="-1" as="offset" />
          </mxGeometry>
        </mxCell>
        <mxCell id="RgUNQmBHwqO6JFGZNGBy-15" value="&lt;div&gt;seq&amp;amp;itemCode&lt;/div&gt;&lt;div&gt;是否能在dbitem里&lt;/div&gt;&lt;div&gt;sameRecordCount&lt;/div&gt;" style="rhombus;whiteSpace=wrap;html=1;" vertex="1" parent="WIyWlLk6GJQsqaUBKTNV-1">
          <mxGeometry x="470" y="143.75" width="149" height="112.5" as="geometry" />
        </mxCell>
        <mxCell id="RgUNQmBHwqO6JFGZNGBy-23" value="" style="edgeStyle=orthogonalEdgeStyle;rounded=0;orthogonalLoop=1;jettySize=auto;html=1;" edge="1" parent="WIyWlLk6GJQsqaUBKTNV-1" source="RgUNQmBHwqO6JFGZNGBy-17" target="RgUNQmBHwqO6JFGZNGBy-22">
          <mxGeometry relative="1" as="geometry" />
        </mxCell>
        <mxCell id="RgUNQmBHwqO6JFGZNGBy-24" value="yes" style="edgeLabel;html=1;align=center;verticalAlign=middle;resizable=0;points=[];" vertex="1" connectable="0" parent="RgUNQmBHwqO6JFGZNGBy-23">
          <mxGeometry x="-0.68" relative="1" as="geometry">
            <mxPoint x="-7" as="offset" />
          </mxGeometry>
        </mxCell>
        <mxCell id="RgUNQmBHwqO6JFGZNGBy-28" style="edgeStyle=orthogonalEdgeStyle;rounded=0;orthogonalLoop=1;jettySize=auto;html=1;exitX=0.5;exitY=1;exitDx=0;exitDy=0;entryX=0.5;entryY=0;entryDx=0;entryDy=0;" edge="1" parent="WIyWlLk6GJQsqaUBKTNV-1" source="RgUNQmBHwqO6JFGZNGBy-17" target="RgUNQmBHwqO6JFGZNGBy-27">
          <mxGeometry relative="1" as="geometry" />
        </mxCell>
        <mxCell id="RgUNQmBHwqO6JFGZNGBy-17" value="&lt;div&gt;sameRecordCount&lt;/div&gt;&amp;lt;=0" style="rhombus;whiteSpace=wrap;html=1;" vertex="1" parent="WIyWlLk6GJQsqaUBKTNV-1">
          <mxGeometry x="260" y="155" width="150" height="90" as="geometry" />
        </mxCell>
        <mxCell id="RgUNQmBHwqO6JFGZNGBy-22" value="errorMessage添加错误日志" style="rounded=1;whiteSpace=wrap;html=1;" vertex="1" parent="WIyWlLk6GJQsqaUBKTNV-1">
          <mxGeometry x="100" y="170" width="120" height="60" as="geometry" />
        </mxCell>
        <mxCell id="RgUNQmBHwqO6JFGZNGBy-30" style="edgeStyle=orthogonalEdgeStyle;rounded=0;orthogonalLoop=1;jettySize=auto;html=1;exitX=0;exitY=0.5;exitDx=0;exitDy=0;" edge="1" parent="WIyWlLk6GJQsqaUBKTNV-1" source="RgUNQmBHwqO6JFGZNGBy-27" target="RgUNQmBHwqO6JFGZNGBy-22">
          <mxGeometry relative="1" as="geometry">
            <Array as="points">
              <mxPoint x="160" y="335" />
            </Array>
          </mxGeometry>
        </mxCell>
        <mxCell id="RgUNQmBHwqO6JFGZNGBy-34" value="yes" style="edgeLabel;html=1;align=center;verticalAlign=middle;resizable=0;points=[];" vertex="1" connectable="0" parent="RgUNQmBHwqO6JFGZNGBy-30">
          <mxGeometry x="-0.5529" relative="1" as="geometry">
            <mxPoint y="-23" as="offset" />
          </mxGeometry>
        </mxCell>
        <mxCell id="RgUNQmBHwqO6JFGZNGBy-32" value="" style="edgeStyle=orthogonalEdgeStyle;rounded=0;orthogonalLoop=1;jettySize=auto;html=1;entryX=0;entryY=0.5;entryDx=0;entryDy=0;" edge="1" parent="WIyWlLk6GJQsqaUBKTNV-1" source="RgUNQmBHwqO6JFGZNGBy-27" target="RgUNQmBHwqO6JFGZNGBy-33">
          <mxGeometry relative="1" as="geometry">
            <mxPoint x="440" y="371.25" as="targetPoint" />
          </mxGeometry>
        </mxCell>
        <mxCell id="RgUNQmBHwqO6JFGZNGBy-35" value="no" style="edgeLabel;html=1;align=center;verticalAlign=middle;resizable=0;points=[];" vertex="1" connectable="0" parent="RgUNQmBHwqO6JFGZNGBy-32">
          <mxGeometry x="-0.2333" y="1" relative="1" as="geometry">
            <mxPoint as="offset" />
          </mxGeometry>
        </mxCell>
        <mxCell id="RgUNQmBHwqO6JFGZNGBy-27" value="&lt;div&gt;sameRecordCount&lt;/div&gt;&amp;gt;1" style="rhombus;whiteSpace=wrap;html=1;" vertex="1" parent="WIyWlLk6GJQsqaUBKTNV-1">
          <mxGeometry x="165" y="290" width="150" height="90" as="geometry" />
        </mxCell>
        <mxCell id="RgUNQmBHwqO6JFGZNGBy-37" value="" style="edgeStyle=orthogonalEdgeStyle;rounded=0;orthogonalLoop=1;jettySize=auto;html=1;" edge="1" parent="WIyWlLk6GJQsqaUBKTNV-1" source="RgUNQmBHwqO6JFGZNGBy-33" target="RgUNQmBHwqO6JFGZNGBy-36">
          <mxGeometry relative="1" as="geometry" />
        </mxCell>
        <mxCell id="RgUNQmBHwqO6JFGZNGBy-38" value="yes" style="edgeLabel;html=1;align=center;verticalAlign=middle;resizable=0;points=[];" vertex="1" connectable="0" parent="RgUNQmBHwqO6JFGZNGBy-37">
          <mxGeometry x="-0.2718" relative="1" as="geometry">
            <mxPoint y="1" as="offset" />
          </mxGeometry>
        </mxCell>
        <mxCell id="RgUNQmBHwqO6JFGZNGBy-40" value="" style="edgeStyle=orthogonalEdgeStyle;rounded=0;orthogonalLoop=1;jettySize=auto;html=1;" edge="1" parent="WIyWlLk6GJQsqaUBKTNV-1" source="RgUNQmBHwqO6JFGZNGBy-33" target="RgUNQmBHwqO6JFGZNGBy-39">
          <mxGeometry relative="1" as="geometry" />
        </mxCell>
        <mxCell id="RgUNQmBHwqO6JFGZNGBy-41" value="no" style="edgeLabel;html=1;align=center;verticalAlign=middle;resizable=0;points=[];" vertex="1" connectable="0" parent="RgUNQmBHwqO6JFGZNGBy-40">
          <mxGeometry x="-0.2182" y="-2" relative="1" as="geometry">
            <mxPoint as="offset" />
          </mxGeometry>
        </mxCell>
        <mxCell id="RgUNQmBHwqO6JFGZNGBy-33" value="&lt;div&gt;dbtiem是否被&lt;/div&gt;&lt;div&gt;permitItem使用了&lt;/div&gt;" style="rhombus;whiteSpace=wrap;html=1;" vertex="1" parent="WIyWlLk6GJQsqaUBKTNV-1">
          <mxGeometry x="380" y="290" width="140" height="95" as="geometry" />
        </mxCell>
        <mxCell id="RgUNQmBHwqO6JFGZNGBy-43" value="" style="edgeStyle=orthogonalEdgeStyle;rounded=0;orthogonalLoop=1;jettySize=auto;html=1;" edge="1" parent="WIyWlLk6GJQsqaUBKTNV-1" source="RgUNQmBHwqO6JFGZNGBy-36" target="RgUNQmBHwqO6JFGZNGBy-42">
          <mxGeometry relative="1" as="geometry" />
        </mxCell>
        <mxCell id="RgUNQmBHwqO6JFGZNGBy-36" value="dtoItem添加到skip2Edit集合" style="rounded=1;whiteSpace=wrap;html=1;" vertex="1" parent="WIyWlLk6GJQsqaUBKTNV-1">
          <mxGeometry x="354" y="440" width="120" height="60" as="geometry" />
        </mxCell>
        <mxCell id="RgUNQmBHwqO6JFGZNGBy-44" style="edgeStyle=orthogonalEdgeStyle;rounded=0;orthogonalLoop=1;jettySize=auto;html=1;exitX=0.5;exitY=1;exitDx=0;exitDy=0;entryX=0.5;entryY=0;entryDx=0;entryDy=0;" edge="1" parent="WIyWlLk6GJQsqaUBKTNV-1" source="RgUNQmBHwqO6JFGZNGBy-39" target="RgUNQmBHwqO6JFGZNGBy-42">
          <mxGeometry relative="1" as="geometry">
            <Array as="points">
              <mxPoint x="590" y="470" />
              <mxPoint x="560" y="470" />
            </Array>
          </mxGeometry>
        </mxCell>
        <mxCell id="RgUNQmBHwqO6JFGZNGBy-39" value="dtoItem添加到wait2Edit集合" style="rounded=1;whiteSpace=wrap;html=1;" vertex="1" parent="WIyWlLk6GJQsqaUBKTNV-1">
          <mxGeometry x="580" y="307.5" width="120" height="60" as="geometry" />
        </mxCell>
        <mxCell id="RgUNQmBHwqO6JFGZNGBy-45" style="edgeStyle=orthogonalEdgeStyle;rounded=0;orthogonalLoop=1;jettySize=auto;html=1;exitX=1;exitY=0.5;exitDx=0;exitDy=0;entryX=0.5;entryY=1;entryDx=0;entryDy=0;" edge="1" parent="WIyWlLk6GJQsqaUBKTNV-1" source="RgUNQmBHwqO6JFGZNGBy-42" target="RgUNQmBHwqO6JFGZNGBy-11">
          <mxGeometry relative="1" as="geometry">
            <Array as="points">
              <mxPoint x="723" y="565" />
              <mxPoint x="723" y="290" />
            </Array>
          </mxGeometry>
        </mxCell>
        <mxCell id="RgUNQmBHwqO6JFGZNGBy-46" value="no" style="edgeLabel;html=1;align=center;verticalAlign=middle;resizable=0;points=[];" vertex="1" connectable="0" parent="RgUNQmBHwqO6JFGZNGBy-45">
          <mxGeometry x="-0.8203" y="-1" relative="1" as="geometry">
            <mxPoint as="offset" />
          </mxGeometry>
        </mxCell>
        <mxCell id="RgUNQmBHwqO6JFGZNGBy-48" value="" style="edgeStyle=orthogonalEdgeStyle;rounded=0;orthogonalLoop=1;jettySize=auto;html=1;entryX=1;entryY=0.5;entryDx=0;entryDy=0;" edge="1" parent="WIyWlLk6GJQsqaUBKTNV-1" source="RgUNQmBHwqO6JFGZNGBy-42" target="RgUNQmBHwqO6JFGZNGBy-51">
          <mxGeometry relative="1" as="geometry">
            <mxPoint x="380" y="565" as="targetPoint" />
          </mxGeometry>
        </mxCell>
        <mxCell id="RgUNQmBHwqO6JFGZNGBy-49" value="yes" style="edgeLabel;html=1;align=center;verticalAlign=middle;resizable=0;points=[];" vertex="1" connectable="0" parent="RgUNQmBHwqO6JFGZNGBy-48">
          <mxGeometry x="-0.7444" relative="1" as="geometry">
            <mxPoint x="-13" as="offset" />
          </mxGeometry>
        </mxCell>
        <mxCell id="RgUNQmBHwqO6JFGZNGBy-42" value="&lt;div&gt;检查是否&lt;/div&gt;&lt;div&gt;最后一条记录&lt;br&gt;&lt;/div&gt;" style="rhombus;whiteSpace=wrap;html=1;" vertex="1" parent="WIyWlLk6GJQsqaUBKTNV-1">
          <mxGeometry x="484" y="520" width="100" height="90" as="geometry" />
        </mxCell>
        <mxCell id="RgUNQmBHwqO6JFGZNGBy-52" style="edgeStyle=orthogonalEdgeStyle;rounded=0;orthogonalLoop=1;jettySize=auto;html=1;exitX=0;exitY=0.5;exitDx=0;exitDy=0;entryX=0.5;entryY=1;entryDx=0;entryDy=0;" edge="1" parent="WIyWlLk6GJQsqaUBKTNV-1" source="RgUNQmBHwqO6JFGZNGBy-51" target="WIyWlLk6GJQsqaUBKTNV-3">
          <mxGeometry relative="1" as="geometry" />
        </mxCell>
        <mxCell id="RgUNQmBHwqO6JFGZNGBy-53" value="yes" style="edgeLabel;html=1;align=center;verticalAlign=middle;resizable=0;points=[];" vertex="1" connectable="0" parent="RgUNQmBHwqO6JFGZNGBy-52">
          <mxGeometry x="-0.8338" y="2" relative="1" as="geometry">
            <mxPoint as="offset" />
          </mxGeometry>
        </mxCell>
        <mxCell id="RgUNQmBHwqO6JFGZNGBy-55" value="" style="edgeStyle=orthogonalEdgeStyle;rounded=0;orthogonalLoop=1;jettySize=auto;html=1;" edge="1" parent="WIyWlLk6GJQsqaUBKTNV-1" source="RgUNQmBHwqO6JFGZNGBy-51" target="RgUNQmBHwqO6JFGZNGBy-54">
          <mxGeometry relative="1" as="geometry" />
        </mxCell>
        <mxCell id="RgUNQmBHwqO6JFGZNGBy-51" value="&lt;div&gt;errorMessage&lt;/div&gt;&amp;gt;0" style="rhombus;whiteSpace=wrap;html=1;" vertex="1" parent="WIyWlLk6GJQsqaUBKTNV-1">
          <mxGeometry x="320" y="517.5" width="95" height="95" as="geometry" />
        </mxCell>
        <mxCell id="RgUNQmBHwqO6JFGZNGBy-56" style="edgeStyle=orthogonalEdgeStyle;rounded=0;orthogonalLoop=1;jettySize=auto;html=1;exitX=0;exitY=0.5;exitDx=0;exitDy=0;" edge="1" parent="WIyWlLk6GJQsqaUBKTNV-1" source="RgUNQmBHwqO6JFGZNGBy-54" target="WIyWlLk6GJQsqaUBKTNV-3">
          <mxGeometry relative="1" as="geometry" />
        </mxCell>
        <mxCell id="RgUNQmBHwqO6JFGZNGBy-57" value="yes" style="edgeLabel;html=1;align=center;verticalAlign=middle;resizable=0;points=[];" vertex="1" connectable="0" parent="RgUNQmBHwqO6JFGZNGBy-56">
          <mxGeometry x="-0.9304" y="1" relative="1" as="geometry">
            <mxPoint x="-39" y="-1" as="offset" />
          </mxGeometry>
        </mxCell>
        <mxCell id="RgUNQmBHwqO6JFGZNGBy-54" value="wait2Edit&amp;lt;=0" style="rhombus;whiteSpace=wrap;html=1;" vertex="1" parent="WIyWlLk6GJQsqaUBKTNV-1">
          <mxGeometry x="327.5" y="650" width="80" height="80" as="geometry" />
        </mxCell>
      </root>
    </mxGraphModel>
  </diagram>
</mxfile>
